<svg xmlns="http://www.w3.org/2000/svg" width="461.22" height="100.412" viewBox="0 0 461.21979 384.41211"><path d="M75.926 81.698v280.883L0 103.99l75.926-22.293z" fill="#c3b7d8"/><path d="M379.599 82.46v301.952l81.62-277.986L379.6 82.46z" fill="#1bc7c8"/><path d="M99.94 0L76.097 81.205H376.51L99.94 0z" fill="#ffd838"/><path d="M161.727 144.986a27.156 27.156 0 0 0-27.157 27.157 27.156 27.156 0 0 0 27.157 27.156 27.156 27.156 0 0 0 27.156-27.156 27.156 27.156 0 0 0-27.156-27.157zm0 8.23a18.926 18.926 0 0 1 18.925 18.927 18.926 18.926 0 0 1-18.925 18.925 18.926 18.926 0 0 1-18.926-18.925 18.926 18.926 0 0 1 18.926-18.926z" fill="#0cb4d9"/><path d="M161.726 159.16a12.983 12.983 0 0 0-12.983 12.983 12.983 12.983 0 0 0 12.983 12.982 12.983 12.983 0 0 0 12.982-12.982 12.983 12.983 0 0 0-12.982-12.983zm131.204-14.174a27.156 27.156 0 0 0-27.157 27.157 27.156 27.156 0 0 0 27.157 27.156 27.156 27.156 0 0 0 27.156-27.156 27.156 27.156 0 0 0-27.156-27.157zm0 8.23a18.926 18.926 0 0 1 18.927 18.927 18.926 18.926 0 0 1-18.927 18.925 18.926 18.926 0 0 1-18.926-18.925 18.926 18.926 0 0 1 18.926-18.926z" fill="#0cb4d9"/><path d="M292.929 159.16a12.983 12.983 0 0 0-12.983 12.983 12.983 12.983 0 0 0 12.983 12.982 12.983 12.983 0 0 0 12.984-12.982 12.983 12.983 0 0 0-12.984-12.983z" fill="#0cb4d9"/></svg>