<?xml version="1.0" encoding="UTF-8" standalone="no"?>
<!-- Created with Inkscape (http://www.inkscape.org/) -->

<svg
   xmlns:dc="http://purl.org/dc/elements/1.1/"
   xmlns:cc="http://creativecommons.org/ns#"
   xmlns:rdf="http://www.w3.org/1999/02/22-rdf-syntax-ns#"
   xmlns:svg="http://www.w3.org/2000/svg"
   xmlns="http://www.w3.org/2000/svg"
   xmlns:sodipodi="http://sodipodi.sourceforge.net/DTD/sodipodi-0.dtd"
   xmlns:inkscape="http://www.inkscape.org/namespaces/inkscape"
   width="461.21979"
   height="100.41211"
   viewBox="0 0 461.21979 384.41211"
   id="svg2"
   version="1.1"
   inkscape:version="0.91 r13725"
   sodipodi:docname="logo1.svg">
  <defs
     id="defs4" />
  <sodipodi:namedview
     id="base"
     pagecolor="#ffffff"
     bordercolor="#666666"
     borderopacity="1.0"
     inkscape:pageopacity="0.0"
     inkscape:pageshadow="2"
     inkscape:zoom="2.0000001"
     inkscape:cx="223.97504"
     inkscape:cy="130.54175"
     inkscape:document-units="px"
     inkscape:current-layer="layer1"
     showgrid="false"
     showguides="false"
     inkscape:window-width="1920"
     inkscape:window-height="995"
     inkscape:window-x="0"
     inkscape:window-y="24"
     inkscape:window-maximized="1"
     units="px"
     fit-margin-top="0"
     fit-margin-left="0"
     fit-margin-right="0"
     fit-margin-bottom="0"
     inkscape:snap-grids="false"
     inkscape:snap-to-guides="true" />
  <metadata
     id="metadata7">
    <rdf:RDF>
      <cc:Work
         rdf:about="">
        <dc:format>image/svg+xml</dc:format>
        <dc:type
           rdf:resource="http://purl.org/dc/dcmitype/StillImage" />
        <dc:title></dc:title>
      </cc:Work>
    </rdf:RDF>
  </metadata>
  <g
     inkscape:label="Layer 1"
     inkscape:groupmode="layer"
     id="layer1"
     transform="translate(-147.5595,-3)">
    <path
       style="fill:#c3b7d8;fill-opacity:1;stroke-width:0;stroke-miterlimit:4;stroke-dasharray:none"
       d="m 223.48528,84.698073 0,280.882817 -75.92578,-258.58985 75.92578,-22.292967 z"
       id="path4244"
       inkscape:connector-curvature="0" />
    <path
       style="fill:#1bc7c8;fill-opacity:1;stroke-width:0;stroke-miterlimit:4;stroke-dasharray:none"
       d="m 527.1582,85.46094 0,301.95117 81.6211,-277.98633 -81.6211,-23.96484 z"
       id="path4240"
       inkscape:connector-curvature="0" />
    <path
       style="fill:#ffd838;fill-opacity:1;stroke-width:0;stroke-miterlimit:4;stroke-dasharray:none"
       d="m 247.5,3 -23.84375,81.20508 300.41406,0 L 247.5,3 Z"
       id="rect4209"
       inkscape:connector-curvature="0" />
    <path
       style="fill:#0cb4d9;fill-opacity:1;stroke-width:0.1;stroke-miterlimit:4;stroke-dasharray:none"
       d="M 161.72656 144.98633 A 27.155912 27.155832 0 0 0 134.57031 172.14258 A 27.155912 27.155832 0 0 0 161.72656 199.29883 A 27.155912 27.155832 0 0 0 188.88281 172.14258 A 27.155912 27.155832 0 0 0 161.72656 144.98633 z M 161.72656 153.2168 A 18.926428 18.926373 0 0 1 180.65234 172.14258 A 18.926428 18.926373 0 0 1 161.72656 191.06836 A 18.926428 18.926373 0 0 1 142.80078 172.14258 A 18.926428 18.926373 0 0 1 161.72656 153.2168 z "
       transform="translate(147.5595,3)"
       id="path4198" />
    <path
       style="fill:#0cb4d9;fill-opacity:1;stroke-width:0.1;stroke-miterlimit:4;stroke-dasharray:none"
       d="m 309.28516,162.16016 a 12.982913,12.982876 0 0 0 -12.98242,12.98242 12.982913,12.982876 0 0 0 12.98242,12.98242 12.982913,12.982876 0 0 0 12.98242,-12.98242 12.982913,12.982876 0 0 0 -12.98242,-12.98242 z"
       id="path4165" />
    <path
       style="fill:#0cb4d9;fill-opacity:1;stroke-width:0.1;stroke-miterlimit:4;stroke-dasharray:none"
       d="M 292.92969 144.98633 A 27.155912 27.155832 0 0 0 265.77344 172.14258 A 27.155912 27.155832 0 0 0 292.92969 199.29883 A 27.155912 27.155832 0 0 0 320.08594 172.14258 A 27.155912 27.155832 0 0 0 292.92969 144.98633 z M 292.92969 153.2168 A 18.926428 18.926373 0 0 1 311.85742 172.14258 A 18.926428 18.926373 0 0 1 292.92969 191.06836 A 18.926428 18.926373 0 0 1 274.00391 172.14258 A 18.926428 18.926373 0 0 1 292.92969 153.2168 z "
       transform="translate(147.5595,3)"
       id="path4208" />
    <path
       style="fill:#0cb4d9;fill-opacity:1;stroke-width:0.1;stroke-miterlimit:4;stroke-dasharray:none"
       d="m 440.48828,162.16016 a 12.982913,12.982876 0 0 0 -12.98242,12.98242 12.982913,12.982876 0 0 0 12.98242,12.98242 12.982913,12.982876 0 0 0 12.98438,-12.98242 12.982913,12.982876 0 0 0 -12.98438,-12.98242 z"
       id="path4165-6" />
  </g>
</svg>
